<svg xmlns="http://www.w3.org/2000/svg" viewBox="0 0 512 512">
  <path fill="#95e7ee" d="M366 125l-279 1v336c0 22 17 40 40 40h200c22 0 40-18 40-40V126l-1-1z"/>
  <path fill="#fec652" d="M367 462V126l-1-1-279 1v336z"/>
  <path fill="#95e7ee" d="M467 211v171c0 22-18 40-40 40h-60v-40h60V211h-60v-40h60c22 0 40 18 40 40z"/>
  <path fill="#ffe5cb" d="M385 82c8 33-27 61-60 44v84a20 20 0 01-39 0v-40c0-14 0-39-44-39-4 0-8 1-10 4a50 50 0 01-71 1c-3-3-8-5-12-5s-8 2-9 6a60 60 0 01-53 33v80c-1 11-10 20-21 20s-20-9-20-20V130c0-47 42-85 90-79a80 80 0 01129-14 40 40 0 0159 21 40 40 0 0161 24z"/>
  <path d="M286 451a10 10 0 100 20 10 10 0 000-20z"/>
  <path d="M146 200c-6 0-10 5-10 10v191a10 10 0 1020 0V210c0-5-5-10-10-10z"/>
  <path d="M226 200c-6 0-10 5-10 10v191a10 10 0 1020 0V210c0-5-5-10-10-10z"/>
  <path d="M127 512h200c27 0 50-22 50-50v-30h50c27 0 50-22 50-50V211c0-28-23-50-50-50h-50v-30a50 50 0 00-48-87 50 50 0 00-61-19 90 90 0 00-137 16c-52-3-95 38-95 89v120a30 30 0 0041 28v184c0 28 22 50 50 50zm200-20H127c-14 0-25-8-29-20h148a10 10 0 100-20H97V180c22-4 41-18 52-39l5 2a60 60 0 0085-1l2-1c16 0 26 3 31 10 4 5 4 13 3 19v40c1 13 9 24 21 29v162a10 10 0 1020 0V239c11-5 20-16 20-29v-70h21v312h-31c-6 0-10 4-10 10s4 10 10 10h29c-4 12-15 20-28 20zm50-271h40v151h-40V221zm50-40c16 0 30 13 30 30v171c0 17-14 30-30 30h-50v-20h50c5 0 10-4 10-10V211c0-6-5-10-10-10h-50v-20h50zM66 260c-6 0-10-4-10-10V130a70 70 0 0179-69c4 1 8-1 10-5 12-22 36-36 61-36 20 0 39 9 52 24 3 3 9 4 13 1 5-2 10-4 16-4 12 0 24 8 28 20a10 10 0 0015 5c7-5 15-6 23-4 11 2 20 11 23 22 5 25-21 46-46 33a10 10 0 00-15 9v84a10 10 0 01-20 0v-40c1-8 1-20-7-30-8-13-24-19-46-19-7 0-13 3-17 7a40 40 0 01-57 1c-5-5-12-8-19-8-8 0-15 4-18 11-9 17-26 28-45 28-5 0-10 5-10 10v80c0 6-4 10-10 10z"/>
</svg>
